# xmcd
#
# Track frame offsets: 
#        150
#        21507
#        41230
#        62637
#        93552
#        116087
#        136535
#        152642
#        173522
#
# Disc length: 2535 seconds
#
# Revision: 3
# Processed by: cddbd v1.5.2PL0 Copyright (c) Steve Scherf et al.
# Submitted via: ExactAudioCopy v0.99pb5
#
DISCID=7109e509
DTITLE=Justo betancourt - Querol
DYEAR=1998
DGENRE=Salsa
TTITLE0=El Tema del Guaguaneo
TTITLE1=Marca Mi Numero
TTITLE2=Mato
TTITLE3=Locura De Amor
TTITLE4=Verdad Verdad
TTITLE5=Entre Derecho
TTITLE6=Al Paso
TTITLE7=La Muerte Enamorada
TTITLE8=Amor Por Ti
EXTD=YEAR: 1998
EXTT0=
EXTT1=
EXTT2=
EXTT3=
EXTT4=
EXTT5=
EXTT6=
EXTT7=
EXTT8=
PLAYORDER=
